<svg width="100" height="100" viewBox="0 0 100 100" fill="none" xmlns="http://www.w3.org/2000/svg">
<g clip-path="url(#clip0_154_16)">
<path d="M50 0C22.3858 0 0 22.3858 0 50C0 77.6143 22.3858 100 50 100C77.6143 100 100 77.6143 100 50C100 22.3858 77.6143 0 50 0ZM32.0313 19.8608C33.0614 19.8001 33.9926 20.4158 34.6985 21.5088L41.5344 34.4726C42.2542 36.0088 41.8452 37.6536 40.7715 38.7512L37.6404 41.8823C37.4472 42.1471 37.32 42.4453 37.3169 42.7733C38.5177 47.4213 42.16 51.7086 45.3737 54.6569C48.5872 57.6053 52.0411 61.597 56.5247 62.5427C57.0788 62.6973 57.7578 62.7527 58.1543 62.3841L61.792 58.6793C63.0477 57.7275 64.8642 57.2663 66.2048 58.0445H66.2658L78.6009 65.326C80.4116 66.4609 80.5992 68.6547 79.3028 69.9891L70.8069 78.418C69.5523 79.7047 67.8854 80.1373 66.266 80.1392C59.1037 79.9246 52.3362 76.4093 46.7775 72.7967C37.6533 66.1589 29.2839 57.9262 24.0296 47.9798C22.0144 43.8089 19.6472 38.4873 19.8731 33.8319C19.8933 32.0806 20.3671 30.3648 21.6004 29.236L30.0965 20.7399C30.7583 20.1768 31.4131 19.8973 32.0313 19.8608Z" fill="white"/>
</g>
<defs>
<clipPath id="clip0_154_16">
<rect width="100" height="100" fill="white"/>
</clipPath>
</defs>
</svg>
