<svg width="100" height="100" viewBox="0 0 100 100" fill="none" xmlns="http://www.w3.org/2000/svg">
<path fill-rule="evenodd" clip-rule="evenodd" d="M6.25 50C6.25 61.6032 10.8594 72.7312 19.0641 80.9359C27.2688 89.1406 38.3968 93.75 50 93.75C61.6032 93.75 72.7312 89.1406 80.9359 80.9359C89.1406 72.7312 93.75 61.6032 93.75 50C93.75 38.3968 89.1406 27.2688 80.9359 19.0641C72.7312 10.8594 61.6032 6.25 50 6.25C38.3968 6.25 27.2688 10.8594 19.0641 19.0641C10.8594 27.2688 6.25 38.3968 6.25 50ZM86.25 50C86.25 59.6141 82.4308 68.8344 75.6326 75.6326C68.8344 82.4308 59.6141 86.25 50 86.25C40.3859 86.25 31.1656 82.4308 24.3674 75.6326C17.5692 68.8344 13.75 59.6141 13.75 50C13.75 40.3859 17.5692 31.1656 24.3674 24.3674C31.1656 17.5692 40.3859 13.75 50 13.75C59.6141 13.75 68.8344 17.5692 75.6326 24.3674C82.4308 31.1656 86.25 40.3859 86.25 50Z" fill="white"/>
<path fill-rule="evenodd" clip-rule="evenodd" d="M31.25 50C31.25 72.61 38.705 91.25 50 91.25C61.295 91.25 68.75 72.61 68.75 50C68.75 27.39 61.295 8.75 50 8.75C38.705 8.75 31.25 27.39 31.25 50ZM61.25 50C61.25 68.81 55.275 83.75 50 83.75C44.725 83.75 38.75 68.81 38.75 50C38.75 31.19 44.725 16.25 50 16.25C55.275 16.25 61.25 31.19 61.25 50Z" fill="white"/>
<path d="M18.01 27.3349L23.04 21.7749C23.54 22.2249 24.085 22.6749 24.665 23.1099C31.02 27.8699 41.165 30.8099 52.24 30.8099C61.695 30.8099 70.505 28.6749 76.895 25.0199C78.435 24.1399 79.805 23.1849 80.99 22.1699L85.86 27.8749C84.233 29.2549 82.4784 30.4771 80.62 31.5249C73.04 35.8649 62.95 38.3049 52.24 38.3049C39.63 38.3049 27.915 34.9149 20.165 29.1099C19.4198 28.5516 18.7007 27.9594 18.01 27.3349ZM18.01 72.7449L23.04 78.3049C23.54 77.8499 24.085 77.4049 24.665 76.9699C31.02 72.2099 41.165 69.2699 52.24 69.2699C61.695 69.2699 70.505 71.4049 76.895 75.0599C78.435 75.9399 79.805 76.8949 80.99 77.9099L85.86 72.2049C84.231 70.8275 82.4767 69.6055 80.62 68.5549C73.04 64.2149 62.95 61.7749 52.24 61.7749C39.63 61.7749 27.915 65.1649 20.165 70.9699C19.4198 71.5281 18.7007 72.1204 18.01 72.7449ZM8.75 53.7499V46.2499H91.25V53.7499H8.75Z" fill="white"/>
</svg>
